<?xml version="1.0" standalone="no"?>
<!DOCTYPE svg PUBLIC "-//W3C//DTD SVG 20010904//EN"
 "http://www.w3.org/TR/2001/REC-SVG-20010904/DTD/svg10.dtd">
<svg version="1.0" xmlns="http://www.w3.org/2000/svg"
 width="1600.000000pt" height="1236.000000pt" viewBox="0 0 1600.000000 1236.000000"
 preserveAspectRatio="xMidYMid meet">

<g transform="translate(0.000000,1236.000000) scale(0.100000,-0.100000)"
fill="white" stroke="none">
<path d="M8280 9354 c-446 -68 -960 -386 -1476 -917 -355 -364 -699 -810 -914
-1182 -319 -556 -402 -1137 -217 -1535 83 -181 187 -276 427 -391 19 -9 16
-54 -5 -75 -19 -19 -15 -27 9 -18 9 3 16 12 16 20 0 17 5 17 31 4 13 -7 19 -7
19 0 0 17 28 11 39 -7 9 -15 10 -14 11 11 l0 29 53 -7 c28 -3 123 -6 210 -6
l157 0 -14 -23 c-11 -15 -12 -27 -5 -37 8 -13 11 -13 23 2 10 13 15 15 24 6 9
-9 12 -7 12 11 0 12 4 19 10 16 6 -3 10 2 10 12 0 25 20 36 130 68 169 50 323
124 531 255 289 183 628 483 1025 910 l154 165 0 118 0 118 -82 -72 c-46 -39
-94 -81 -108 -93 -425 -359 -754 -595 -1021 -735 -235 -123 -373 -166 -567
-177 -161 -9 -254 17 -334 94 -27 25 -35 39 -28 48 6 6 7 19 4 28 -6 15 -8 15
-23 2 -15 -14 -19 -12 -44 27 -50 76 -69 158 -74 312 -4 116 -1 157 16 242 43
206 143 450 287 696 89 153 111 173 133 118 14 -32 41 -50 41 -26 0 7 -4 17
-10 20 -5 3 -10 24 -10 45 0 21 -5 40 -12 42 -7 3 7 33 37 79 l49 74 7 -34 c4
-18 12 -37 18 -41 17 -10 27 -80 12 -80 -7 0 -10 4 -7 8 2 4 1 14 -5 22 -6 11
-9 1 -9 -31 0 -25 -3 -49 -7 -52 -3 -4 -8 -17 -9 -30 -1 -12 -5 -31 -7 -42 -3
-11 -6 -23 -6 -27 -1 -5 -9 -8 -18 -8 -14 0 -15 -2 -5 -9 7 -4 12 -12 11 -17
-1 -5 -1 -25 0 -44 1 -28 5 -36 21 -37 14 -1 22 6 27 25 3 15 9 29 12 32 15
13 30 50 22 55 -5 3 -12 -1 -14 -7 -4 -10 -6 -10 -6 0 -1 6 -7 12 -15 12 -15
0 -8 22 25 82 5 10 9 22 9 27 0 5 14 39 30 74 17 36 30 69 30 74 0 4 11 30 25
57 14 27 25 59 25 71 0 29 27 120 51 172 10 24 19 46 19 51 0 4 8 15 18 24 9
9 23 24 31 33 8 10 19 14 30 9 9 -4 28 -9 44 -12 15 -2 27 -11 27 -18 0 -8 5
-14 10 -14 6 0 10 7 10 15 0 8 -4 15 -10 15 -5 0 -10 6 -10 14 0 7 -7 19 -15
26 -21 17 -19 50 5 75 10 11 63 70 116 130 194 219 464 462 662 594 166 111
291 162 345 142 30 -12 37 -29 37 -96 0 -145 -111 -364 -340 -670 -85 -113
-241 -294 -261 -303 -3 -1 -9 10 -12 26 -6 29 -40 52 -77 52 -48 0 -328 -259
-473 -438 -161 -199 -215 -292 -236 -408 -23 -123 27 -231 132 -285 20 -11 37
-23 37 -27 0 -4 34 -5 76 -1 105 10 207 61 368 183 70 53 135 102 144 109 9 7
100 95 202 197 244 243 414 446 552 656 214 328 301 531 328 774 24 206 -36
418 -145 519 -88 81 -224 123 -345 105z m-1364 -1646 c-11 -109 -84 -214 -87
-125 -2 69 17 137 40 137 5 0 14 14 21 30 22 53 33 35 26 -42z"/>
<path d="M3920 8738 c0 -6 -3 -9 -6 -5 -9 9 -53 -16 -92 -52 -19 -18 -44 -31
-58 -31 -27 0 -120 -86 -179 -165 -16 -22 -32 -42 -35 -45 -3 -3 -12 -18 -20
-35 -8 -16 -21 -37 -30 -46 -30 -33 -50 -59 -50 -68 0 -13 -37 -20 -76 -14
-27 4 -34 2 -34 -11 0 -9 -4 -16 -10 -16 -5 0 -10 -7 -10 -15 0 -10 -10 -15
-28 -15 -18 0 -37 -9 -50 -25 -18 -20 -31 -25 -71 -25 -31 0 -53 -5 -61 -15
-7 -8 -27 -15 -45 -15 -27 0 -34 -5 -40 -27 -3 -16 -12 -41 -20 -58 -18 -44
-35 -108 -35 -138 0 -14 -4 -29 -10 -32 -5 -3 -10 -21 -10 -40 0 -19 -4 -37
-10 -40 -5 -3 -10 -21 -10 -39 0 -19 -7 -52 -15 -75 -8 -23 -15 -70 -15 -104
0 -89 -4 -127 -12 -127 -5 0 -8 -20 -8 -45 0 -25 3 -45 8 -45 4 0 15 -20 26
-45 14 -35 15 -49 7 -59 -9 -11 -9 -16 0 -21 8 -6 7 -10 -2 -16 -11 -7 -11 -9
-1 -9 7 0 11 -4 7 -9 -3 -5 3 -17 12 -27 34 -33 53 -69 53 -101 0 -18 4 -33
10 -33 11 0 2 -60 -11 -74 -6 -6 -9 -5 -9 2 0 7 -5 12 -11 12 -5 0 -7 -4 -4
-10 3 -5 -3 -20 -14 -32 -26 -27 -26 -43 -2 -77 19 -26 21 -83 5 -133 -3 -10
-1 -18 5 -18 6 0 16 -18 22 -40 7 -22 16 -40 21 -40 4 0 8 -8 8 -19 0 -25 21
-83 28 -77 7 8 52 -54 52 -72 0 -29 38 -95 78 -137 6 -8 12 -16 12 -20 0 -13
74 -75 89 -75 31 0 41 -22 41 -94 -1 -70 -14 -106 -39 -106 -6 0 -11 -4 -11
-10 0 -5 5 -10 11 -10 6 0 4 -7 -5 -15 -16 -17 -56 -20 -56 -5 0 6 -30 10 -69
10 -62 0 -69 -2 -74 -22 -9 -33 -1 -38 69 -38 51 0 68 -4 84 -20 11 -11 20
-26 20 -32 -1 -18 -26 -49 -33 -41 -4 3 -7 -5 -7 -18 0 -36 -23 -79 -40 -76
-29 4 -24 -49 7 -77 32 -30 43 -32 43 -11 0 8 8 15 18 15 27 0 42 20 42 56 0
18 5 36 10 39 6 4 8 15 5 25 -3 11 1 20 11 24 11 4 14 13 11 27 -3 12 -1 33 5
48 6 14 12 40 14 58 2 18 12 45 24 61 16 22 23 48 26 103 6 91 10 152 18 294
4 61 11 146 16 190 6 44 10 99 10 123 0 32 6 48 23 65 40 37 61 77 49 89 -8 8
-15 8 -25 -1 -8 -6 -22 -9 -31 -5 -9 3 -23 1 -31 -6 -16 -13 -35 -6 -35 14 0
8 -6 19 -13 25 -28 23 -38 85 -26 163 18 121 44 162 74 121 15 -21 38 -8 30
18 -9 27 3 57 24 64 10 3 23 17 29 30 7 14 20 29 31 33 27 10 101 112 101 140
0 13 4 21 9 18 5 -3 16 5 24 18 13 20 14 29 4 55 -11 29 -9 32 38 76 43 40 54
45 81 40 21 -4 35 -1 44 10 7 8 25 15 41 15 22 0 34 8 49 33 10 17 23 37 27
42 15 17 43 77 43 92 0 7 11 23 25 35 14 12 25 26 25 32 0 6 20 32 44 58 43
46 43 47 35 98 -4 29 -13 57 -18 64 -35 42 -77 226 -52 226 4 0 16 20 25 44
17 44 59 76 72 55 8 -14 7 -133 -2 -161 -6 -20 -8 -20 -19 -5 -11 15 -13 12
-19 -26 -6 -42 1 -72 35 -139 5 -10 9 -26 9 -36 0 -10 19 -38 43 -63 38 -39
51 -46 127 -63 47 -11 93 -19 102 -19 10 1 18 -4 18 -11 0 -40 119 -7 183 50
29 26 74 35 101 21 12 -5 28 -13 36 -17 8 -4 15 -17 14 -29 0 -11 2 -19 4 -16
3 3 21 -7 40 -22 29 -21 38 -24 53 -15 26 17 36 15 42 -8 3 -11 13 -20 24 -20
27 0 60 -58 67 -118 4 -30 12 -62 19 -73 9 -14 9 -21 -1 -31 -14 -14 -16 -64
-2 -73 13 -8 13 -45 -1 -45 -6 0 -9 -16 -8 -39 2 -27 -3 -46 -14 -59 -23 -25
-22 -26 18 -42 31 -12 35 -18 35 -51 0 -57 -16 -93 -38 -83 -9 4 -49 9 -87 10
-59 1 -79 -3 -120 -25 -33 -17 -51 -34 -53 -48 -4 -28 20 -35 132 -38 93 -2
106 -8 106 -53 0 -12 -4 -30 -9 -40 -5 -9 -13 -30 -17 -46 -15 -49 -36 -54
-85 -18 -30 23 -46 29 -55 21 -8 -7 -14 -7 -19 1 -5 8 -11 8 -20 0 -10 -8 -19
-8 -34 0 -16 8 -29 7 -56 -4 -37 -16 -42 -25 -23 -44 9 -9 9 -18 0 -37 -11
-24 -9 -30 32 -71 44 -44 70 -57 60 -29 -8 19 17 75 33 75 14 0 33 -31 33 -54
0 -9 -9 -25 -21 -37 -11 -11 -19 -23 -17 -25 8 -7 52 -6 76 2 24 7 24 6 19
-57 -7 -95 -32 -208 -62 -280 -57 -139 -79 -182 -127 -242 -21 -27 -38 -53
-38 -58 0 -21 -122 -168 -204 -246 -47 -45 -86 -84 -86 -87 0 -15 41 -4 50 14
9 17 21 20 75 20 35 0 65 4 67 10 2 5 33 10 69 11 64 1 107 18 95 37 -14 23 7
42 45 42 21 0 39 4 39 10 0 5 7 7 15 4 8 -4 15 -1 15 5 0 6 10 11 23 12 21 0
21 1 2 9 -17 7 -14 9 13 9 22 1 31 5 26 13 -4 6 0 16 8 22 8 6 20 21 27 34 6
12 18 22 26 22 7 0 24 15 36 33 31 43 45 57 59 57 8 0 10 9 6 24 -6 26 8 46
17 24 4 -10 6 -10 6 0 1 8 15 27 31 42 18 17 30 38 30 54 0 14 5 26 10 26 6 0
10 11 10 25 0 16 6 25 15 25 8 0 15 7 15 15 0 8 5 15 10 15 6 0 10 5 10 11 0
6 10 19 21 28 12 9 23 29 24 42 4 33 26 69 43 69 9 0 12 10 10 28 -3 27 -4 27
-81 29 -66 2 -80 5 -100 26 -28 29 -47 62 -47 82 0 8 -4 15 -10 15 -5 0 -10
18 -10 39 0 22 5 43 10 46 6 3 10 17 10 31 0 13 5 24 10 24 6 0 10 7 10 15 0
8 5 15 10 15 6 0 10 16 10 35 0 35 35 85 60 85 5 0 10 6 11 13 0 6 6 46 12 87
17 100 -4 289 -32 298 -6 2 -11 21 -11 43 0 21 -4 39 -10 39 -5 0 -10 15 -10
34 0 19 -4 38 -10 41 -5 3 -10 17 -10 31 0 14 -7 32 -15 41 -8 8 -13 19 -10
24 4 5 1 9 -4 9 -6 0 -11 18 -11 40 0 22 5 40 10 40 19 0 11 107 -10 145 -11
20 -20 51 -20 69 0 21 -6 36 -15 40 -9 3 -15 18 -15 36 0 16 -4 30 -10 30 -5
0 -10 11 -10 25 0 14 -4 25 -10 25 -5 0 -10 7 -10 15 0 8 -4 15 -10 15 -5 0
-10 13 -10 29 0 16 -7 34 -15 41 -9 7 -14 15 -11 17 2 2 -11 21 -30 41 -19 20
-37 45 -40 55 -7 23 -40 57 -55 57 -14 0 -39 25 -39 39 0 6 -4 11 -10 11 -5 0
-10 14 -10 31 0 34 -27 77 -75 121 -23 21 -40 27 -72 28 -24 0 -43 -4 -43 -9
0 -5 -13 -14 -30 -21 -16 -7 -30 -16 -30 -19 0 -4 -19 -28 -41 -54 -34 -38
-48 -47 -76 -47 -38 0 -79 33 -110 90 -11 20 -29 36 -41 38 -12 2 -30 14 -41
28 -18 23 -23 24 -150 24 -93 0 -131 -3 -131 -12z m640 -428 c0 -16 -4 -32
-10 -35 -5 -3 -10 -17 -10 -31 0 -13 -5 -24 -11 -24 -7 0 -9 10 -4 28 3 15 9
44 12 64 6 43 23 41 23 -2z m-547 -212 c24 -32 16 -48 -24 -48 -27 0 -29 2
-29 41 0 32 3 40 16 37 9 -2 26 -15 37 -30z m488 -19 c-25 -24 -26 -18 -4 24
14 26 18 28 21 14 2 -11 -6 -28 -17 -38z"/>
<path d="M7188 8088 c-15 -24 -13 -58 3 -58 5 0 9 -9 9 -21 0 -12 5 -19 13
-17 15 6 17 96 1 109 -8 6 -16 2 -26 -13z"/>
<path d="M7157 7934 c-3 -3 -3 -12 -1 -19 3 -7 1 -16 -5 -20 -6 -3 -11 -14
-11 -23 0 -43 -25 -96 -65 -139 -25 -27 -45 -53 -45 -60 0 -24 19 -23 47 2 47
42 52 45 63 45 6 0 16 14 21 30 6 17 15 30 20 30 5 0 15 12 22 28 6 15 22 35
35 45 20 17 52 67 52 82 0 3 -5 5 -11 5 -14 0 -47 -39 -60 -70 -5 -14 -21 -33
-34 -43 -24 -17 -25 -17 -31 8 -3 14 1 42 10 65 14 35 11 52 -7 34z"/>
<path d="M4114 7768 c-16 -4 -35 -17 -42 -29 -10 -16 -10 -19 -1 -13 22 13
130 4 157 -14 14 -9 51 -50 83 -92 80 -103 87 -110 105 -110 40 0 -6 171 -52
195 -10 6 -38 23 -61 38 -32 22 -54 29 -101 31 -32 1 -72 -2 -88 -6z"/>
<path d="M6990 7639 c0 -5 5 -7 10 -4 6 3 10 8 10 11 0 2 -4 4 -10 4 -5 0 -10
-5 -10 -11z"/>
<path d="M3970 7440 c0 -6 9 -20 20 -32 11 -12 20 -29 20 -38 0 -19 40 -60 58
-60 7 0 12 -4 12 -10 0 -5 11 -10 24 -10 13 0 29 -7 36 -15 9 -11 28 -15 64
-13 86 5 118 58 35 58 -21 0 -39 5 -39 10 0 6 -7 10 -16 10 -14 0 -71 27 -84
40 -9 9 -44 30 -67 39 -11 6 -24 15 -28 20 -8 14 -35 14 -35 1z"/>
<path d="M4624 7132 c-55 -45 -83 -146 -84 -297 0 -38 -3 -87 -7 -108 -5 -34
-9 -38 -29 -34 -16 3 -33 -4 -50 -20 -35 -32 -26 -49 25 -45 44 3 49 -3 26
-34 -8 -10 -15 -25 -15 -31 0 -19 45 -16 62 5 13 14 40 132 39 167 0 6 -3 64
-5 130 -6 130 6 200 36 216 10 5 18 16 18 24 0 7 7 21 16 29 22 23 -5 21 -32
-2z"/>
<path d="M6742 7107 c-7 -18 -12 -40 -12 -49 0 -9 -6 -18 -13 -21 -7 -2 -14
-20 -15 -38 -1 -19 -13 -56 -26 -84 -30 -62 -38 -96 -26 -115 7 -11 12 -10 29
11 11 13 20 34 21 47 0 12 5 22 11 22 5 0 7 -4 4 -10 -3 -5 -2 -10 4 -10 5 0
19 20 31 45 16 34 19 49 11 59 -6 7 -8 16 -5 19 7 6 15 64 18 121 2 41 -18 43
-32 3z m-15 -209 c-3 -7 -5 -2 -5 12 0 14 2 19 5 13 2 -7 2 -19 0 -25z"/>
<path d="M6710 6835 c0 -8 -4 -15 -10 -15 -5 0 -10 -7 -10 -15 0 -8 5 -15 10
-15 6 0 10 7 10 15 0 8 5 15 10 15 6 0 10 7 10 15 0 8 -4 15 -10 15 -5 0 -10
-7 -10 -15z"/>
<path d="M3964 6793 c-10 -7 -26 -13 -36 -13 -22 0 -35 -27 -21 -41 16 -16
113 36 113 61 0 11 -38 6 -56 -7z"/>
<path d="M4296 6764 c-10 -25 2 -34 44 -34 48 0 58 13 25 34 -31 20 -61 21
-69 0z"/>
<path d="M6658 6760 c-22 -20 -23 -30 -3 -30 16 0 39 36 28 43 -5 2 -16 -3
-25 -13z"/>
<path d="M6630 6680 c0 -19 3 -21 12 -12 9 9 9 15 0 24 -9 9 -12 7 -12 -12z"/>
<path d="M6592 6644 c-6 -12 -8 -24 -5 -28 3 -3 1 -6 -5 -6 -6 0 -14 -10 -18
-22 -3 -12 -14 -37 -22 -57 -9 -20 -17 -49 -18 -66 0 -16 -4 -41 -9 -54 -5
-16 -4 -21 4 -17 6 4 11 15 11 25 0 10 9 30 21 45 13 17 19 36 16 51 -2 14 2
30 9 36 8 6 14 20 14 31 0 11 5 28 11 39 6 11 9 25 6 32 -2 7 -8 3 -15 -9z"/>
<path d="M3920 6632 c-20 -16 -22 -22 -12 -53 6 -19 14 -56 18 -84 12 -91 79
-255 105 -255 4 0 14 -11 21 -24 22 -41 86 -84 143 -96 51 -10 58 -9 112 17
39 19 66 40 82 66 14 20 32 37 43 37 11 0 18 7 18 18 0 10 5 23 10 28 7 7 7
33 1 77 -11 78 -37 111 -114 146 -26 12 -63 38 -82 59 -28 31 -37 35 -52 26
-14 -9 -24 -8 -42 4 -74 49 -210 67 -251 34z m130 -47 c10 -9 23 -14 29 -11
15 9 43 -7 130 -76 40 -32 79 -58 86 -58 15 0 59 -49 78 -87 18 -34 3 -63 -33
-63 -36 0 -129 48 -209 109 -41 31 -84 62 -97 69 -13 7 -24 17 -24 23 0 5 -6
9 -14 9 -20 0 -46 45 -46 81 0 31 1 32 41 26 22 -3 49 -13 59 -22z m11 -262
c21 -21 48 -46 59 -55 21 -19 28 -58 10 -58 -6 0 -13 7 -17 16 -4 10 -13 14
-27 10 -29 -7 -76 51 -76 93 0 17 3 31 7 31 3 0 23 -17 44 -37z"/>
<path d="M3491 6494 c0 -11 3 -14 6 -6 3 7 2 16 -1 19 -3 4 -6 -2 -5 -13z"/>
<path d="M3510 6452 c0 -4 4 -13 9 -20 7 -11 9 -11 14 1 3 9 -1 18 -9 21 -8 3
-14 2 -14 -2z"/>
<path d="M3497 6388 c3 -29 12 -62 19 -73 8 -11 14 -27 14 -37 0 -17 14 -46
58 -118 12 -19 22 -41 22 -49 0 -7 15 -35 34 -61 19 -27 44 -66 55 -89 12 -22
30 -45 41 -51 11 -6 20 -21 20 -34 0 -13 7 -29 15 -36 8 -7 15 -18 15 -25 0
-6 9 -20 20 -30 11 -10 20 -23 20 -29 0 -14 77 -64 153 -100 46 -22 57 -31 57
-51 0 -13 -4 -27 -10 -30 -5 -3 -14 -23 -20 -43 -5 -21 -23 -53 -40 -72 -16
-18 -30 -43 -30 -54 0 -10 -8 -28 -17 -38 -13 -14 -14 -21 -5 -30 7 -7 12 -20
12 -29 0 -12 6 -16 18 -12 30 7 39 -17 45 -117 6 -107 26 -220 40 -220 5 0 6
-18 2 -40 -6 -33 -4 -41 11 -47 42 -16 94 -109 94 -169 0 -13 4 -26 10 -29 5
-3 7 -18 4 -33 -3 -15 1 -47 10 -72 9 -25 16 -57 16 -72 0 -15 5 -30 10 -33
15 -9 12 99 -4 167 -8 32 -12 67 -9 79 3 11 1 30 -5 42 -6 12 -13 42 -16 67
-2 25 -12 95 -20 155 -20 144 -21 239 -1 255 8 7 15 20 15 29 0 14 37 121 45
129 11 11 54 -59 70 -114 21 -74 30 -85 39 -49 6 23 10 25 49 19 50 -8 78 -31
118 -99 51 -85 53 -89 76 -127 30 -49 69 -54 60 -8 -4 16 -15 49 -26 71 -11
23 -18 46 -15 50 11 18 95 -103 138 -196 10 -22 26 -57 35 -77 17 -34 17 -40
3 -69 -11 -21 -31 -38 -61 -52 -25 -11 -51 -26 -59 -33 -7 -8 -18 -14 -22 -14
-15 0 -41 -47 -51 -90 -5 -23 -18 -60 -28 -83 -28 -63 -44 -106 -46 -125 -2
-20 -12 -64 -27 -113 -8 -30 -8 -41 5 -59 14 -21 16 -21 25 -3 6 10 14 15 18
11 4 -4 13 0 19 9 17 22 35 8 71 -55 32 -56 52 -137 59 -235 14 -195 27 -271
51 -297 13 -14 30 -45 39 -70 8 -25 24 -64 35 -87 11 -24 20 -47 20 -53 0 -5
12 -34 27 -65 26 -52 56 -72 65 -43 2 6 19 11 38 10 19 0 37 1 42 4 7 4 -12
66 -31 104 -5 9 -12 31 -16 50 -4 19 -16 51 -26 70 -87 166 -118 262 -119 362
0 31 -4 67 -9 80 -5 13 -14 50 -21 83 -6 33 -16 68 -21 77 -5 10 -9 26 -9 35
0 10 -18 43 -40 73 -83 115 -90 130 -82 185 9 60 35 74 53 28 7 -15 18 -42 25
-60 8 -17 14 -36 14 -42 0 -9 35 -105 60 -166 5 -11 16 -45 24 -75 47 -159 62
-203 107 -295 121 -252 187 -394 204 -442 11 -29 23 -53 27 -53 4 0 8 -6 8
-14 0 -30 94 -37 116 -8 13 16 15 16 25 0 6 -12 22 -18 44 -18 30 0 35 4 35
23 0 12 -11 35 -25 51 -31 37 -36 116 -7 116 9 1 79 1 155 0 89 -1 137 3 137
10 0 5 7 10 16 10 10 0 14 6 11 14 -3 8 1 17 9 20 17 6 19 47 2 64 -8 8 -8 15
1 25 15 19 -13 43 -45 39 -18 -3 -24 1 -24 15 0 10 -3 34 -6 54 -5 30 -2 41
21 65 20 21 25 35 21 56 -3 15 -1 30 4 33 15 9 12 35 -4 35 -8 0 -17 -11 -20
-25 -4 -14 -10 -25 -15 -25 -19 0 -20 33 -1 70 11 22 20 46 20 53 0 8 9 17 20
20 23 6 27 27 6 27 -18 0 -29 31 -20 54 6 16 8 16 25 0 25 -23 47 -6 30 23 -6
11 -11 13 -11 5 0 -8 -6 -12 -12 -10 -8 3 -13 22 -14 46 0 36 2 40 15 29 9 -7
19 -16 23 -22 4 -5 16 1 29 15 l22 25 -7 -27 c-3 -15 -2 -30 4 -33 5 -3 10
-14 10 -23 0 -9 9 -28 20 -42 l19 -25 16 22 c19 28 50 21 33 -7 -9 -14 -8 -21
5 -34 21 -21 24 -20 31 9 7 26 36 25 36 -2 0 -31 35 -7 44 30 9 35 6 46 -39
132 -44 85 -52 95 -92 111 -23 10 -43 22 -43 26 0 4 -8 8 -19 8 -18 0 -63 18
-109 44 -17 10 -20 15 -10 19 8 3 5 6 -7 7 -11 0 -33 19 -50 41 -16 22 -36 46
-42 54 -7 7 -13 18 -13 24 0 6 -4 11 -10 11 -5 0 -10 6 -10 13 0 7 -9 19 -20
27 -11 8 -20 20 -20 27 0 7 -7 13 -15 13 -8 0 -15 7 -15 15 0 8 -9 15 -20 15
-11 0 -20 5 -20 11 0 22 -30 39 -70 39 -35 0 -41 3 -36 17 5 11 -7 29 -37 57
-24 23 -49 56 -56 74 -8 17 -17 32 -22 32 -5 0 -9 7 -9 15 0 8 -4 15 -10 15
-5 0 -10 6 -10 14 0 8 -10 18 -21 21 -18 6 -32 -3 -74 -46 -63 -65 -108 -135
-98 -152 8 -13 13 -68 13 -134 l-1 -41 53 -7 c63 -8 104 -25 141 -59 23 -21
27 -33 27 -78 0 -91 -19 -121 -50 -83 -21 25 -49 18 -63 -17 l-13 -32 -13 35
c-7 19 -19 49 -27 67 -8 18 -14 40 -14 49 0 9 -16 50 -36 92 -47 99 -52 113
-75 199 -16 62 -35 108 -90 214 -14 27 -11 30 19 26 24 -3 27 -7 30 -48 2 -30
11 -53 26 -70 13 -14 26 -33 29 -42 14 -40 47 -4 47 51 0 17 5 31 10 31 6 0
10 9 10 21 0 12 14 34 30 49 17 15 30 32 30 37 0 15 -57 43 -87 43 -27 0 -63
-28 -63 -50 0 -6 -9 -10 -20 -10 -11 0 -20 5 -20 10 0 17 -39 54 -47 46 -4 -4
-1 -11 7 -16 8 -6 10 -10 4 -10 -5 0 -27 16 -48 35 -21 19 -46 35 -55 35 -10
0 -26 7 -37 15 -10 8 -31 15 -46 15 -16 0 -28 6 -28 13 0 7 -10 19 -21 27 -12
8 -27 20 -33 26 -12 12 -56 37 -68 40 -5 1 -25 2 -45 3 -29 1 -34 4 -23 11 11
7 8 10 -16 10 -17 0 -37 7 -44 15 -7 8 -19 15 -26 15 -8 0 -14 7 -14 15 0 8
-4 15 -10 15 -5 0 -10 7 -10 15 0 8 -16 39 -35 69 -19 30 -35 62 -35 71 0 9
-9 25 -20 37 -16 17 -20 36 -20 85 0 35 4 63 10 63 6 0 10 11 10 24 0 14 5 28
10 31 6 3 10 13 10 22 0 12 -3 13 -15 3 -8 -6 -49 -14 -92 -17 -89 -5 -122 8
-205 82 -49 43 -155 200 -208 305 -18 36 -42 83 -53 106 -27 51 -44 91 -52
126 -4 15 -13 29 -21 32 -8 3 -14 12 -14 21 0 8 -4 15 -10 15 -5 0 -7 -22 -3
-52z m1636 -1566 c9 -8 17 -26 17 -39 0 -22 -3 -23 -70 -22 -38 1 -70 5 -70
11 0 20 22 48 47 62 29 15 48 12 76 -12z m-323 -128 c0 -8 5 -14 10 -14 6 0
10 -5 10 -10 0 -6 9 -29 19 -53 49 -107 65 -167 43 -167 -10 0 -42 65 -42 86
0 8 -8 29 -17 47 -19 36 -44 139 -31 131 4 -3 8 -12 8 -20z m-92 -21 c5 -16
33 -89 62 -163 29 -74 64 -164 77 -200 14 -36 34 -84 44 -107 11 -24 19 -46
19 -50 0 -4 13 -34 29 -67 16 -34 43 -97 59 -141 17 -44 56 -141 87 -215 30
-74 60 -151 66 -170 7 -19 20 -53 30 -75 20 -46 40 -117 34 -123 -6 -6 -56 77
-67 112 -6 17 -24 60 -40 96 -16 36 -38 83 -48 105 -10 22 -32 70 -49 107 -17
37 -49 111 -70 165 -22 54 -51 120 -65 146 -14 26 -26 53 -26 60 0 7 -11 33
-25 59 -14 26 -25 54 -25 62 0 8 -13 39 -30 69 -16 30 -30 60 -30 66 0 6 -23
58 -50 115 -50 103 -51 105 -36 140 18 43 40 46 54 9z m610 -142 c7 -9 12 -32
10 -51 -3 -39 -25 -50 -62 -32 -11 6 -30 12 -41 14 -24 4 -30 33 -16 71 10 25
14 27 53 21 24 -4 49 -14 56 -23z m103 -45 c17 -15 36 -22 48 -19 13 3 23 -2
31 -16 14 -27 5 -41 -25 -41 -14 0 -31 -11 -43 -26 -19 -26 -19 -27 -46 -8
-26 17 -28 21 -21 68 10 76 13 78 56 42z m-516 -86 c3 -5 1 -10 -4 -10 -6 0
-11 5 -11 10 0 6 2 10 4 10 3 0 8 -4 11 -10z m685 -20 c0 -5 -4 -10 -10 -10
-5 0 -10 5 -10 10 0 6 5 10 10 10 6 0 10 -4 10 -10z m19 -107 c1 -7 -3 -13 -9
-13 -5 0 -10 17 -9 38 1 33 2 34 9 12 4 -14 8 -31 9 -37z m-562 -35 c-3 -8 -6
-5 -6 6 -1 11 2 17 5 13 3 -3 4 -12 1 -19z m243 -7 c4 -16 13 -25 28 -26 22
-2 51 -30 51 -50 1 -5 -7 -20 -17 -32 -17 -22 -83 -35 -99 -20 -16 17 -97 47
-124 47 -22 0 -29 -5 -29 -20 0 -11 -4 -20 -10 -20 -5 0 -10 9 -10 19 0 11 -4
23 -10 26 -5 3 -10 21 -9 38 l1 32 10 -30 c6 -16 12 -31 13 -33 6 -7 65 55 65
69 0 26 11 30 74 27 54 -3 61 -5 66 -27z m484 -48 c-8 -41 -14 -41 -14 1 0 20
4 35 9 31 5 -3 7 -18 5 -32z m-242 -8 c8 -9 -11 -137 -24 -152 -14 -17 -75
-10 -97 12 -12 12 -12 19 3 48 9 19 16 39 16 44 0 27 84 66 102 48z m-154
-355 c12 0 16 -13 12 -40 -2 -17 -58 -90 -69 -90 -13 0 -31 49 -31 86 0 19 7
46 16 60 l17 25 22 -21 c12 -11 27 -20 33 -20z"/>
<path d="M6482 6318 c-7 -7 -12 -21 -12 -32 0 -18 1 -17 20 4 29 34 22 58 -8
28z"/>
<path d="M6812 5937 c-17 -20 0 -40 22 -24 15 11 16 15 3 25 -11 10 -17 9 -25
-1z"/>
<path d="M6855 5900 c-9 -15 -2 -21 29 -24 17 -2 26 2 26 10 0 8 -4 14 -9 14
-5 0 -16 3 -24 6 -8 3 -18 0 -22 -6z"/>
<path d="M6805 5879 c-4 -6 -5 -12 -2 -15 2 -3 7 2 10 11 7 17 1 20 -8 4z"/>
<path d="M4228 5803 c7 -3 16 -2 19 1 4 3 -2 6 -13 5 -11 0 -14 -3 -6 -6z"/>
<path d="M4190 5780 c-13 -8 -12 -10 3 -10 9 0 17 5 17 10 0 12 -1 12 -20 0z"/>
<path d="M3002 5520 c0 -14 2 -19 5 -12 2 6 2 18 0 25 -3 6 -5 1 -5 -13z"/>
<path d="M2947 5440 c-18 -22 -23 -60 -8 -60 14 0 41 41 41 62 0 24 -12 23
-33 -2z"/>
<path d="M2880 5343 c0 -11 -15 -26 -37 -38 -43 -22 -88 -68 -72 -73 5 -2 -5
-12 -23 -22 -35 -18 -49 -47 -26 -54 103 -29 129 -41 184 -85 34 -28 76 -73
93 -101 46 -75 59 -67 56 33 -2 45 -6 91 -10 102 -8 26 -95 71 -165 86 -30 6
-59 15 -64 20 -10 9 31 48 51 49 24 0 120 -40 141 -60 12 -11 24 -20 27 -20 3
0 5 27 5 60 0 68 -13 83 -85 96 -22 3 -48 11 -57 16 -14 7 -18 5 -18 -9z"/>
<path d="M3750 5286 c0 -8 5 -18 10 -21 6 -3 10 3 10 14 0 12 -4 21 -10 21 -5
0 -10 -6 -10 -14z"/>
<path d="M6820 5251 c0 -13 26 -21 67 -21 l35 0 -7 -150 c-7 -149 -7 -150 14
-150 20 0 21 4 21 119 0 65 3 132 6 149 6 29 10 31 52 34 25 2 47 9 50 16 3 9
-25 12 -117 12 -67 0 -121 -4 -121 -9z"/>
<path d="M7540 5220 l0 -40 -52 0 c-96 0 -148 -53 -148 -150 0 -44 4 -56 30
-82 28 -28 34 -29 83 -24 28 3 66 7 82 8 l30 3 3 163 c2 140 0 162 -13 162
-11 0 -15 -11 -15 -40z m-21 -69 c19 -12 15 -137 -5 -169 -47 -73 -144 -36
-144 54 0 79 93 150 149 115z"/>
<path d="M9055 5248 c-2 -7 -5 -82 -8 -165 -4 -144 -3 -153 15 -153 16 0 18 9
18 68 0 37 3 111 7 165 5 87 4 97 -11 97 -9 0 -18 -6 -21 -12z"/>
<path d="M9507 5163 c-11 -162 -9 -233 7 -233 17 0 26 71 26 218 0 87 -3 112
-13 112 -10 0 -16 -26 -20 -97z"/>
<path d="M9597 5254 c-9 -10 2 -24 19 -24 8 0 14 7 14 15 0 15 -21 21 -33 9z"/>
<path d="M10360 5245 c0 -8 9 -15 20 -15 11 0 20 7 20 15 0 8 -9 15 -20 15
-11 0 -20 -7 -20 -15z"/>
<path d="M3780 5184 c0 -8 5 -12 10 -9 6 3 10 10 10 16 0 5 -4 9 -10 9 -5 0
-10 -7 -10 -16z"/>
<path d="M7703 5180 c-62 -14 -93 -60 -93 -141 0 -45 4 -55 34 -85 29 -29 41
-34 83 -34 28 0 58 7 71 16 76 53 66 222 -15 240 -15 3 -32 7 -38 8 -5 1 -25
-1 -42 -4z m70 -31 c66 -30 59 -174 -9 -199 -58 -22 -107 8 -119 72 -17 93 52
162 128 127z"/>
<path d="M8610 5179 c-19 -4 -45 -5 -57 -2 -23 5 -23 5 -23 -121 0 -105 2
-126 15 -126 12 0 15 14 15 64 0 115 23 166 75 166 14 0 25 4 25 9 0 16 -13
18 -50 10z"/>
<path d="M7109 5152 c-27 -24 -33 -37 -37 -85 -8 -97 30 -147 113 -147 54 0
90 23 109 70 20 50 20 81 2 124 -19 46 -51 66 -108 66 -38 0 -54 -6 -79 -28z
m136 -17 c21 -20 25 -34 25 -80 0 -50 -4 -60 -30 -87 -26 -25 -36 -29 -63 -24
-68 13 -99 95 -61 167 26 52 90 64 129 24z"/>
<path d="M8043 5170 c-20 -8 -23 -17 -23 -67 0 -32 -3 -109 -7 -170 -5 -98 -4
-113 9 -113 16 0 28 39 28 92 0 25 2 27 19 18 28 -15 87 -12 120 5 30 15 61
76 61 121 0 37 -25 89 -51 108 -26 18 -118 21 -156 6z m151 -42 c14 -18 17
-35 14 -82 -4 -49 -9 -63 -32 -83 -36 -31 -61 -29 -97 6 -25 26 -29 37 -29 88
0 82 22 106 90 98 20 -3 43 -14 54 -27z"/>
<path d="M8307 5173 c-18 -17 -2 -22 51 -17 43 4 62 2 77 -10 30 -22 9 -47
-56 -66 -76 -23 -95 -35 -107 -67 -11 -34 0 -68 28 -83 28 -15 112 -9 118 9 4
11 -2 12 -23 7 -70 -18 -123 32 -79 74 22 21 112 52 126 44 5 -4 7 -33 3 -70
-7 -61 -6 -64 14 -64 20 0 21 5 21 108 0 134 -5 142 -102 142 -35 0 -68 -3
-71 -7z"/>
<path d="M8707 5173 c-18 -17 -3 -24 38 -17 63 9 95 -1 95 -30 0 -24 0 -24
-102 -60 -55 -20 -71 -37 -71 -76 0 -50 28 -71 92 -68 35 2 56 8 59 17 4 11
-3 12 -30 7 -73 -13 -117 35 -70 77 17 15 93 47 113 47 5 0 9 -31 9 -70 0 -52
3 -70 14 -70 9 0 15 21 19 68 16 162 5 182 -96 182 -35 0 -67 -3 -70 -7z"/>
<path d="M9147 5174 c-15 -15 7 -23 48 -17 58 7 95 -2 95 -26 0 -25 -15 -35
-80 -56 -95 -30 -126 -83 -79 -134 17 -18 29 -21 77 -19 36 2 57 8 60 17 4 11
-3 12 -30 7 -54 -10 -88 7 -88 43 0 33 7 38 89 70 l54 20 -5 -74 c-5 -68 -3
-75 14 -75 16 0 18 9 20 73 4 130 2 149 -17 164 -19 13 -146 19 -158 7z"/>
<path d="M9596 5164 c-3 -9 -6 -65 -6 -125 0 -90 3 -109 15 -109 10 0 15 10
15 33 0 19 3 75 6 125 6 79 5 92 -8 92 -9 0 -19 -7 -22 -16z"/>
<path d="M9690 5116 c0 -34 -3 -91 -6 -125 -7 -58 -6 -61 15 -61 20 0 21 5 21
74 0 88 10 119 45 142 21 13 31 15 50 6 24 -11 25 -15 25 -117 0 -83 3 -105
14 -105 10 0 16 23 21 92 6 77 11 95 31 115 25 25 45 29 75 13 17 -10 19 -22
19 -115 0 -82 3 -105 13 -105 10 0 16 26 20 98 6 85 5 100 -12 122 -23 32 -90
39 -128 15 -22 -15 -26 -15 -42 -1 -21 19 -92 21 -110 4 -11 -10 -14 -10 -18
0 -3 6 -11 12 -19 12 -11 0 -14 -15 -14 -64z"/>
<path d="M10109 5173 c-23 -6 -28 -42 -30 -208 -2 -123 0 -140 14 -143 14 -3
17 6 17 58 0 55 2 61 18 54 31 -14 99 -16 121 -4 75 39 82 202 12 240 -19 10
-119 12 -152 3z m142 -42 c68 -68 10 -207 -77 -185 -40 10 -54 41 -54 122 0
66 2 73 23 82 43 17 77 11 108 -19z"/>
<path d="M10360 5102 c0 -44 -3 -100 -6 -126 -6 -42 -5 -46 15 -46 20 0 21 5
23 110 0 61 1 116 2 122 1 7 -7 14 -16 16 -16 3 -18 -6 -18 -76z"/>
<path d="M10478 5160 c-36 -28 -51 -72 -46 -132 5 -42 11 -57 37 -80 29 -26
38 -29 93 -26 42 2 63 8 66 17 4 11 -4 13 -37 7 -62 -10 -107 13 -120 61 -6
21 -11 41 -11 46 0 4 43 7 95 7 l95 0 0 34 c0 53 -37 86 -98 86 -34 0 -57 -6
-74 -20z m122 -22 c37 -39 27 -48 -55 -48 -41 0 -75 3 -75 8 1 23 55 62 87 62
12 0 31 -10 43 -22z"/>
<path d="M10680 5170 c0 -6 27 -10 60 -10 33 0 60 -3 60 -6 0 -4 -31 -50 -70
-104 -38 -54 -70 -102 -70 -108 0 -6 31 -12 74 -14 83 -3 106 -1 106 13 0 5
-30 9 -66 9 -79 0 -80 -4 11 119 36 49 65 94 65 100 0 7 -29 11 -85 11 -50 0
-85 -4 -85 -10z"/>
<path d="M10907 5173 c-18 -17 -3 -24 38 -17 53 7 91 0 98 -21 9 -22 -17 -42
-77 -59 -71 -21 -99 -45 -99 -84 0 -52 27 -73 92 -70 36 2 56 8 59 17 4 11 -2
13 -28 8 -47 -10 -79 1 -86 29 -8 30 9 51 55 70 82 34 81 35 81 -45 0 -53 3
-71 14 -71 13 0 26 84 26 177 0 56 -24 73 -106 73 -33 0 -64 -3 -67 -7z"/>
<path d="M6051 5141 c-7 -12 -7 -22 -2 -26 5 -3 13 4 16 16 9 28 -1 36 -14 10z"/>
<path d="M3787 5128 c-5 -15 10 -48 22 -48 13 0 21 27 15 45 -7 18 -31 20 -37
3z"/>
<path d="M2588 5099 c-11 -34 3 -47 57 -51 44 -4 129 -37 180 -70 40 -27 113
-101 152 -157 26 -36 51 -67 55 -69 4 -2 8 -10 8 -18 0 -8 5 -14 10 -14 6 0
10 17 10 38 0 31 -11 52 -67 123 -61 77 -165 169 -191 169 -5 0 -15 7 -22 15
-7 8 -22 15 -34 15 -12 0 -26 4 -32 10 -5 5 -35 12 -65 16 -44 5 -58 3 -61 -7z"/>
<path d="M3795 5038 c-13 -43 -12 -81 2 -143 16 -71 28 -95 45 -95 6 0 7 13 3
33 -4 17 -8 67 -10 110 -2 43 -6 85 -9 93 -7 17 -25 18 -31 2z"/>
<path d="M2584 5020 c-5 -5 -22 -10 -38 -12 -16 -2 -32 -10 -34 -18 -4 -13 -3
-13 11 -2 13 11 22 10 52 -3 21 -8 45 -15 55 -15 10 0 42 -18 71 -40 30 -22
58 -40 64 -40 10 0 65 -63 65 -76 0 -3 14 -23 30 -44 17 -21 30 -40 30 -43 0
-3 22 -41 48 -84 64 -102 127 -237 118 -251 -5 -9 30 -84 60 -127 11 -17 26
-46 34 -65 7 -19 20 -51 28 -70 8 -19 17 -44 22 -55 4 -11 12 -31 18 -45 6
-14 25 -65 42 -115 17 -49 35 -99 39 -110 22 -52 62 -167 81 -230 12 -38 24
-77 27 -85 4 -8 18 -49 33 -90 l27 -75 56 -3 c32 -2 57 0 57 3 0 12 -83 252
-106 307 -13 32 -31 79 -40 105 -8 27 -23 66 -33 88 -25 56 -35 125 -18 125
13 0 47 -34 47 -48 0 -4 30 -40 65 -81 36 -41 65 -79 65 -84 0 -11 42 -109
127 -294 l56 -123 79 0 c43 0 78 2 78 5 0 3 -14 33 -31 67 -17 35 -43 86 -56
113 -14 28 -43 80 -64 116 -21 36 -61 111 -88 166 -28 55 -66 120 -86 144 -19
24 -35 51 -35 59 -1 8 -14 40 -30 70 -17 30 -30 60 -30 65 0 6 -18 41 -40 79
-22 37 -40 73 -40 80 0 6 -14 38 -30 71 -26 51 -39 105 -26 105 2 0 19 -7 38
-14 28 -12 40 -27 63 -78 15 -35 50 -98 77 -141 26 -43 48 -80 48 -82 0 -5 36
-86 90 -200 20 -44 42 -95 48 -112 6 -18 24 -52 40 -75 16 -24 63 -111 105
-194 125 -249 117 -239 171 -242 25 -2 46 -1 46 2 0 3 -43 91 -95 194 -52 104
-95 192 -95 196 0 3 -17 43 -39 88 -21 46 -46 108 -56 138 -33 103 -46 135
-121 285 -41 83 -74 158 -74 167 0 15 -62 61 -85 62 -5 1 -19 6 -30 13 -11 6
-49 17 -85 24 -36 6 -69 18 -73 25 -4 8 -41 29 -81 49 -99 47 -193 48 -120 0
37 -24 74 -57 74 -66 0 -5 13 -30 28 -56 15 -26 34 -64 41 -83 14 -37 30 -73
81 -183 51 -109 51 -159 0 -127 -11 7 -12 12 -3 21 9 9 5 17 -18 36 -16 14
-29 32 -29 41 0 10 -14 30 -30 46 -17 16 -30 39 -30 51 0 12 -16 52 -35 88
-19 36 -35 77 -35 91 0 17 -4 24 -14 20 -9 -3 -17 6 -24 24 -6 17 -31 61 -56
100 -25 38 -46 77 -46 86 0 17 -26 63 -46 81 -6 6 -24 28 -40 50 -16 22 -40
50 -54 62 -80 72 -99 88 -133 113 -44 33 -151 72 -163 60z m811 -1020 c-5 -8
-11 -8 -17 -2 -6 6 -7 16 -3 22 5 8 11 8 17 2 6 -6 7 -16 3 -22z"/>
<path d="M6632 4940 c0 -14 2 -19 5 -12 2 6 2 18 0 25 -3 6 -5 1 -5 -13z"/>
<path d="M4390 4921 c0 -6 5 -13 10 -16 6 -3 10 1 10 9 0 9 -4 16 -10 16 -5 0
-10 -4 -10 -9z"/>
<path d="M5922 4898 c-7 -7 -12 -19 -12 -27 0 -11 4 -10 20 4 21 19 26 35 12
35 -4 0 -13 -5 -20 -12z"/>
<path d="M2466 4893 c-16 -17 -1 -36 64 -78 38 -25 78 -58 87 -73 9 -15 22
-31 28 -37 16 -15 200 -383 214 -430 7 -22 16 -49 21 -60 31 -77 50 -130 50
-142 0 -8 7 -28 16 -44 21 -41 84 -216 94 -259 4 -19 13 -48 19 -63 20 -51 61
-225 61 -260 0 -44 8 -67 25 -67 7 0 15 -13 19 -30 5 -29 8 -30 56 -30 52 0
61 9 41 48 -9 18 -58 158 -72 207 -125 445 -216 709 -318 925 -39 83 -186 290
-206 290 -6 0 -26 13 -45 30 -19 16 -39 29 -44 30 -6 0 -19 8 -30 19 -23 20
-69 34 -80 24z"/>
<path d="M6612 4860 c0 -19 2 -27 5 -17 2 9 2 25 0 35 -3 9 -5 1 -5 -18z"/>
<path d="M5896 4843 c-12 -12 -6 -33 9 -33 8 0 15 6 15 14 0 17 -14 28 -24 19z"/>
<path d="M5851 4748 c-6 -16 -15 -28 -21 -28 -5 0 -10 -13 -10 -29 0 -16 -4
-31 -9 -33 -5 -1 -10 -31 -13 -64 -3 -51 -2 -59 9 -48 7 7 13 21 13 31 0 10 6
27 13 38 7 11 19 45 27 76 14 64 9 100 -9 57z"/>
<path d="M6575 4730 c-3 -5 -1 -10 4 -10 6 0 11 5 11 10 0 6 -2 10 -4 10 -3 0
-8 -4 -11 -10z"/>
<path d="M2503 4658 c-4 -7 -16 -38 -26 -68 -11 -30 -23 -57 -28 -60 -13 -9
-14 -193 0 -198 14 -5 15 -119 1 -124 -7 -2 -12 -149 -13 -446 l-2 -442 26 0
c25 0 27 3 34 68 3 37 13 105 21 151 8 46 14 113 14 150 0 87 17 190 37 220
13 20 14 42 8 122 -4 63 -3 105 4 117 10 19 26 103 37 192 3 19 12 75 21 123
14 70 15 92 5 105 -7 9 -21 30 -31 45 -30 46 -91 71 -108 45z"/>
<path d="M6561 4644 c0 -11 3 -14 6 -6 3 7 2 16 -1 19 -3 4 -6 -2 -5 -13z"/>
<path d="M6530 4616 c0 -14 5 -26 10 -26 6 0 10 9 10 19 0 11 -4 23 -10 26 -6
4 -10 -5 -10 -19z"/>
<path d="M6534 4568 c2 -9 -2 -22 -10 -29 -8 -7 -27 -32 -41 -56 -26 -45 -25
-77 2 -67 8 3 15 1 15 -5 0 -6 5 -11 11 -11 6 0 9 6 6 13 -2 6 0 20 5 31 7 13
6 21 -3 27 -11 7 -10 9 4 9 9 0 17 7 17 15 0 8 5 15 10 15 15 0 12 34 -6 56
-12 15 -15 16 -10 2z"/>
<path d="M4208 4353 c6 -65 10 -70 11 -15 0 28 -3 52 -7 52 -4 0 -6 -17 -4
-37z"/>
<path d="M6462 4370 c-24 -22 -29 -40 -11 -40 6 0 9 -7 6 -15 -4 -8 -2 -17 3
-20 6 -4 10 7 10 24 0 21 5 31 15 31 8 0 15 9 15 20 0 25 -11 25 -38 0z"/>
<path d="M3679 4331 c48 -48 54 -61 90 -196 55 -202 52 -194 212 -522 66 -133
123 -253 129 -268 9 -24 13 -25 95 -25 94 0 97 2 71 62 -110 254 -119 284
-136 418 -6 47 -13 99 -15 115 -2 17 -8 50 -14 75 -16 69 -14 90 9 90 11 0 20
-7 20 -15 0 -8 6 -15 13 -15 6 0 29 -16 50 -35 28 -27 36 -42 35 -63 -3 -31
34 -239 63 -352 43 -171 52 -206 59 -225 5 -11 11 -28 14 -37 5 -15 18 -18 94
-18 l90 0 5 58 c3 40 1 64 -10 80 -8 13 -16 37 -18 53 -2 17 -11 41 -19 54 -9
13 -13 32 -9 41 4 10 0 21 -9 28 -32 24 -73 121 -108 255 -12 47 -41 79 -98
109 -81 41 -168 94 -178 108 -6 7 -16 14 -21 14 -14 0 -142 69 -172 91 -13 11
-28 19 -33 19 -6 0 -19 11 -30 25 -11 14 -25 25 -31 25 -7 0 -28 12 -47 28
-19 15 -48 33 -65 41 -16 7 -38 17 -47 22 -39 20 -35 6 11 -40z m211 -139 c17
-14 24 -37 35 -117 17 -120 18 -125 5 -125 -18 0 -56 105 -51 145 0 2 -8 25
-19 51 -27 62 -14 82 30 46z"/>
<path d="M6424 4282 c3 -6 0 -16 -7 -24 -7 -7 -13 -29 -13 -48 1 -19 -4 -41
-11 -48 -7 -7 -10 -19 -7 -26 3 -8 -4 -16 -18 -20 -19 -5 -20 -8 -8 -16 8 -5
10 -10 4 -10 -6 0 -9 -17 -8 -41 2 -48 14 -66 14 -21 0 18 5 32 10 32 6 0 10
11 10 25 0 14 5 25 10 25 6 0 10 7 10 15 0 8 4 15 8 15 14 0 34 72 30 109 -2
19 -9 37 -17 39 -8 3 -11 0 -7 -6z"/>
<path d="M4416 4178 c-9 -12 -16 -28 -16 -34 0 -6 -6 -17 -14 -23 -16 -13 -29
-82 -20 -105 3 -9 14 -16 24 -16 24 0 83 -81 110 -150 11 -30 25 -64 30 -75
16 -35 23 -165 9 -181 -7 -9 -8 -14 -1 -14 6 0 20 -41 32 -91 12 -51 28 -109
37 -130 l15 -39 60 0 c53 0 59 2 53 18 -3 9 -11 41 -16 71 -6 29 -19 70 -29
90 -11 20 -22 52 -25 71 -2 19 -9 64 -14 99 -6 35 -7 77 -4 92 3 17 0 35 -7
44 -7 9 -17 39 -21 68 -6 35 -16 59 -32 72 -12 11 -29 38 -36 60 -7 22 -21 49
-31 60 -29 33 -42 66 -36 91 5 17 3 22 -8 18 -7 -3 -16 2 -19 10 -9 22 -23 20
-41 -6z"/>
<path d="M2747 4174 c-4 -4 -7 -18 -7 -32 0 -13 -7 -45 -14 -71 -25 -79 -46
-194 -46 -249 0 -51 -1 -52 -25 -46 l-26 6 7 -63 c3 -40 1 -75 -6 -94 -6 -16
-18 -83 -25 -149 -8 -65 -17 -127 -20 -137 -6 -18 0 -19 80 -19 116 0 119 4
135 145 7 61 19 137 27 170 8 33 18 83 24 110 10 54 3 158 -14 189 -5 11 -22
69 -37 130 -25 103 -36 126 -53 110z"/>
<path d="M6330 4002 c0 -9 -7 -11 -20 -7 -16 5 -20 2 -20 -17 0 -13 -11 -39
-24 -56 -25 -35 -53 -118 -42 -129 3 -3 6 1 6 10 0 10 7 17 15 17 8 0 15 7 15
15 0 8 5 15 10 15 6 0 10 5 10 11 0 6 11 25 24 42 33 43 46 80 35 98 -7 11 -9
11 -9 1z"/>
<path d="M5620 3880 c0 -5 7 -10 16 -10 8 0 12 5 9 10 -3 6 -10 10 -16 10 -5
0 -9 -4 -9 -10z"/>
<path d="M5593 3790 c-24 -10 -31 -44 -11 -56 13 -8 40 24 31 39 -3 5 1 13 8
18 18 11 1 10 -28 -1z"/>
<path d="M6182 3750 c-8 -16 -20 -30 -28 -30 -8 0 -14 -6 -14 -14 0 -7 -16
-24 -35 -37 -36 -25 -48 -46 -19 -35 9 3 18 6 20 6 2 0 4 7 4 15 0 9 6 12 15
9 8 -4 15 -1 15 6 0 15 25 40 42 40 15 0 36 40 30 58 -6 20 -16 14 -30 -18z"/>
<path d="M5978 3606 c-23 -17 -23 -26 2 -26 11 0 20 6 20 14 0 8 8 17 18 19
14 4 14 5 -3 6 -11 0 -28 -6 -37 -13z"/>
<path d="M5875 3560 c4 -6 11 -8 16 -5 14 9 11 15 -7 15 -8 0 -12 -5 -9 -10z"/>
<path d="M2945 3535 c-28 -16 -39 -28 -37 -41 1 -10 4 -46 6 -79 1 -33 4 -68
4 -77 2 -14 11 -18 37 -18 30 0 35 3 35 23 0 12 3 59 6 103 8 106 2 117 -51
89z"/>
<path d="M5779 3548 c-7 -24 -5 -38 6 -38 8 0 17 5 20 10 3 6 16 10 28 11 21
0 21 1 2 9 -19 8 -54 13 -56 8z"/>
<path d="M5673 3533 c15 -2 37 -2 50 0 12 2 0 4 -28 4 -27 0 -38 -2 -22 -4z"/>
</g>
</svg>
