<?xml version="1.0" standalone="no"?>
<!DOCTYPE svg PUBLIC "-//W3C//DTD SVG 20010904//EN"
 "http://www.w3.org/TR/2001/REC-SVG-20010904/DTD/svg10.dtd">
<svg version="1.0" xmlns="http://www.w3.org/2000/svg"
 width="328.000000pt" height="316.000000pt" viewBox="0 0 328.000000 316.000000"
 preserveAspectRatio="xMidYMid meet">

<g transform="translate(0.000000,316.000000) scale(0.100000,-0.100000)"
fill="#1e3a8a" stroke="#FFFFFFFF">
<path d="M0 1580 l0 -1580 1640 0 1640 0 0 1580 0 1580 -1640 0 -1640 0 0
-1580z m1384 1250 c24 -22 50 -40 57 -40 8 0 29 16 48 35 18 20 42 35 55 35
25 0 60 -33 70 -65 3 -12 24 -41 46 -65 63 -70 129 -231 116 -284 -4 -15 5
-60 24 -118 37 -113 41 -202 10 -241 -11 -14 -20 -29 -20 -35 0 -5 -7 -23 -16
-41 -29 -58 4 -121 62 -121 57 0 55 -6 -56 -180 -42 -66 -130 -150 -156 -150
-13 0 -28 -9 -34 -19 -7 -15 -26 -21 -75 -26 -36 -4 -68 -11 -71 -16 -3 -5
-10 -9 -17 -9 -6 0 14 26 45 58 101 103 163 211 187 320 16 75 14 92 -8 92
-14 0 -17 6 -13 25 5 30 -14 34 -23 4 l-7 -21 -22 21 c-13 12 -21 31 -21 48 2
25 6 28 40 31 21 2 49 -2 62 -9 29 -15 43 -4 46 37 2 28 0 29 -48 34 -35 4
-50 9 -50 20 0 23 46 41 87 35 31 -4 38 -2 43 16 4 13 1 27 -10 39 -9 10 -14
24 -10 30 11 18 8 132 -4 164 -13 33 -38 55 -62 56 -9 0 -28 11 -43 25 -15 14
-31 25 -35 25 -5 0 -30 -12 -56 -27 -38 -21 -51 -24 -66 -15 -10 6 -36 14 -58
18 -47 8 -75 34 -96 93 -13 38 -13 45 0 64 19 27 20 77 2 77 -34 0 -47 -85
-22 -134 23 -44 22 -69 -8 -108 -15 -19 -37 -55 -50 -79 -19 -36 -31 -46 -66
-56 -52 -15 -71 -29 -71 -54 0 -26 -38 -89 -77 -126 -18 -18 -33 -39 -33 -47
0 -9 -8 -16 -19 -16 -30 0 -43 -84 -20 -133 8 -19 16 -22 41 -19 32 5 32 -2 3
-38 -8 -9 -17 -81 -25 -184 -6 -94 -15 -177 -19 -185 -4 -9 -16 -47 -26 -86
-20 -77 -41 -103 -64 -80 -13 12 -11 20 9 60 27 52 20 65 -33 65 -19 0 -27 4
-24 13 2 7 21 12 46 12 35 0 45 4 56 25 19 34 18 66 -1 82 -102 83 -197 313
-149 362 17 16 13 55 -10 91 -41 66 -34 211 17 391 20 70 20 70 66 84 58 17
102 39 102 51 0 5 12 9 28 9 22 0 35 12 73 68 32 48 63 79 109 110 60 39 69
42 132 42 66 0 70 -2 112 -40z m1416 -296 c0 -22 -2 -24 -14 -14 -8 6 -12 18
-9 26 9 23 23 16 23 -12z m30 -53 c0 -18 -101 -131 -116 -131 -13 0 -11 6 6
30 11 16 27 46 35 67 l14 38 1 -30 1 -30 26 33 c27 34 33 38 33 23z m-1447
-85 c42 -17 65 -45 73 -84 10 -48 -14 -40 -59 18 -35 46 -42 50 -80 50 -39 1
-41 2 -23 15 25 19 48 19 89 1z m-10 -211 c27 -7 11 -25 -23 -25 -42 0 -79 20
-96 51 -8 16 -14 31 -14 34 0 3 26 -8 58 -24 31 -17 65 -33 75 -36z m177 -112
c-15 -29 -20 -57 -20 -123 0 -105 -6 -130 -32 -130 -11 0 -16 5 -13 11 4 6 -1
17 -11 25 -11 9 -14 17 -9 20 35 16 39 26 46 104 6 65 12 87 30 106 31 33 32
30 9 -13z m1029 -24 c-2 -34 -9 -59 -23 -77 -11 -14 -15 -23 -8 -19 8 5 10 3
6 -6 -6 -17 -34 -18 -34 -2 0 10 23 84 45 143 9 26 15 10 14 -39z m-1329 -124
c-7 -8 -22 -15 -34 -15 -21 1 -21 1 -2 15 27 21 53 20 36 0z m175 -6 c10 -15
-1 -23 -20 -15 -9 3 -13 10 -10 16 8 13 22 13 30 -1z m1115 -3 c0 -3 -4 -8
-10 -11 -5 -3 -10 -1 -10 4 0 6 5 11 10 11 6 0 10 -2 10 -4z m-1236 -63 c34
-9 73 -26 88 -37 15 -12 38 -29 52 -39 51 -36 28 -119 -44 -157 -70 -38 -156
35 -184 158 -14 62 -14 68 1 80 21 15 15 15 87 -5z m1177 -54 c-11 -30 -20
-44 -20 -33 -1 24 28 99 35 92 2 -3 -5 -29 -15 -59z m-1455 -37 c-8 -13 87
-200 127 -253 41 -53 80 -73 137 -67 22 2 40 2 40 -1 0 -2 -5 -20 -11 -41 -10
-33 -8 -43 20 -99 31 -61 76 -101 113 -101 9 0 29 -10 45 -22 15 -13 51 -34
78 -48 28 -13 53 -29 57 -34 4 -6 15 -3 27 8 18 16 25 17 47 8 l25 -12 -20
-26 c-12 -15 -21 -35 -21 -45 0 -45 -36 -28 -50 25 -3 11 -11 21 -19 24 -9 3
-9 -4 3 -27 16 -29 57 -138 93 -244 13 -37 18 -45 25 -33 7 12 14 14 28 6 15
-8 19 -5 24 16 9 34 -16 72 -52 80 -15 3 -32 7 -38 9 -7 2 -14 25 -16 51 -3
42 1 54 27 88 16 22 35 41 41 43 6 2 31 -23 55 -57 24 -33 51 -60 60 -60 16 0
56 -39 107 -106 17 -23 46 -47 64 -54 54 -22 93 -56 112 -99 15 -31 16 -44 7
-54 -14 -18 -57 -16 -53 2 2 8 -3 11 -11 8 -17 -7 -37 11 -37 33 0 9 -8 16
-20 16 -11 0 -20 -6 -20 -13 0 -7 5 -13 10 -13 6 0 10 -5 10 -11 0 -6 -7 -9
-15 -5 -9 3 -15 0 -15 -9 0 -8 4 -15 10 -15 5 0 1 -15 -10 -32 -24 -39 -26
-55 -5 -38 13 11 15 8 15 -13 0 -14 -5 -29 -10 -32 -5 -3 -10 -13 -10 -22 0
-13 3 -13 15 -3 10 8 15 9 15 2 0 -6 -8 -16 -17 -22 -14 -8 -15 -12 -5 -17 21
-8 34 -51 22 -74 -9 -16 -22 -19 -86 -19 l-76 0 4 -27 c3 -16 8 -35 12 -44 6
-15 0 -17 -47 -18 l-54 0 -63 137 c-34 75 -84 200 -111 276 -53 151 -63 170
-74 136 -5 -15 2 -36 22 -69 39 -62 52 -101 63 -189 6 -46 23 -103 44 -150 51
-114 53 -128 21 -136 -15 -4 -30 -5 -32 -2 -9 8 -74 159 -84 191 -6 22 -7 14
-3 -28 3 -32 12 -74 20 -92 23 -55 19 -75 -14 -75 -26 0 -30 5 -45 60 -10 33
-17 79 -17 102 0 52 -29 119 -66 153 l-27 25 18 40 c21 46 32 50 45 15 5 -13
21 -43 36 -67 15 -23 30 -54 35 -68 7 -23 7 -22 8 10 1 46 -17 119 -35 148
-12 18 -18 20 -34 12 -27 -15 -32 1 -18 57 26 107 52 157 96 186 23 16 42 33
42 38 0 20 -53 119 -73 136 -19 17 -20 17 -8 -4 6 -12 11 -29 11 -39 0 -24
-23 -3 -55 52 -28 48 -56 68 -83 60 -13 -4 -22 5 -36 37 l-18 42 -15 -35 c-24
-55 -27 -111 -10 -217 28 -171 31 -196 19 -189 -6 3 -13 25 -17 49 -12 82 -17
96 -38 123 -11 15 -22 34 -23 43 -19 131 -28 167 -40 174 -20 12 -18 26 16 92
17 32 30 60 30 61 0 1 -22 16 -50 33 -27 17 -57 43 -66 58 -10 15 -33 51 -51
80 -72 112 -115 233 -82 233 5 0 8 -4 5 -8z m1614 -262 c0 -5 -4 -10 -10 -10
-5 0 -10 5 -10 10 0 6 5 10 10 10 6 0 10 -4 10 -10z m-1880 -219 c0 -6 -4 -13
-10 -16 -5 -3 -10 1 -10 9 0 9 5 16 10 16 6 0 10 -4 10 -9z m4 -51 c20 -7 26
-16 26 -40 l0 -30 -40 20 c-38 19 -60 20 -60 1 0 -4 18 -13 40 -20 21 -6 46
-21 55 -34 14 -20 21 -87 9 -87 -3 0 -25 20 -48 44 -25 25 -57 47 -74 51 -18
3 -34 10 -37 15 -7 11 71 90 89 90 8 0 26 -4 40 -10z m401 -99 c3 -5 1 -12 -5
-16 -5 -3 -10 1 -10 9 0 18 6 21 15 7z m-497 -28 c41 -19 132 -118 132 -144 0
-10 -2 -19 -4 -19 -2 0 -21 23 -41 50 -39 53 -98 93 -152 105 -18 4 -33 10
-33 14 0 26 36 23 98 -6z m505 -70 c3 -29 2 -53 -2 -53 -12 0 -21 37 -21 85 0
54 16 32 23 -32z m-551 36 c59 -30 128 -104 172 -184 21 -38 41 -72 45 -75 4
-3 15 -27 25 -55 10 -27 24 -57 30 -65 7 -8 18 -27 26 -42 16 -34 34 -37 24
-5 -20 65 -88 195 -112 214 l-27 23 25 0 c14 0 43 -10 65 -21 22 -12 60 -28
86 -35 26 -8 52 -21 59 -29 17 -21 72 -138 115 -246 21 -52 57 -133 81 -181
24 -48 44 -90 44 -93 0 -4 -10 -5 -22 -3 -25 3 -88 112 -175 302 -69 150 -122
235 -145 236 -18 0 57 -153 195 -405 37 -66 67 -123 67 -127 0 -5 -18 -8 -39
-8 l-39 0 -42 98 c-41 93 -121 215 -128 194 -1 -5 20 -72 48 -148 27 -76 50
-140 50 -141 0 -2 -13 -3 -29 -3 -27 0 -31 5 -51 67 -39 119 -122 337 -143
378 -12 22 -29 62 -39 89 -27 75 -106 195 -150 226 -21 16 -54 32 -71 36 -28
6 -30 8 -12 15 11 4 21 8 23 8 1 1 21 -8 44 -20z m-36 -80 c86 -59 148 -184
245 -496 33 -107 62 -200 65 -208 9 -22 -38 -19 -52 3 -7 10 -17 45 -24 78
-19 94 -116 357 -175 474 -40 80 -64 116 -94 140 -23 17 -39 36 -35 41 6 10
10 8 70 -32z m1604 37 c0 -3 -4 -8 -10 -11 -5 -3 -10 -1 -10 4 0 6 5 11 10 11
6 0 10 -2 10 -4z m-55 -125 c-9 -28 -19 -51 -22 -51 -9 0 7 83 19 97 19 24 21
6 3 -46z m-1543 -26 c8 -18 8 -43 -2 -97 -7 -40 -16 -109 -21 -153 -11 -115
-39 -328 -44 -342 -2 -7 -9 -13 -15 -13 -7 0 -10 89 -9 287 2 276 7 328 34
355 12 11 45 -11 57 -37z m1883 -32 c-4 -10 -10 -26 -12 -35 -3 -10 -12 -18
-19 -18 -18 0 -17 4 1 40 17 32 42 42 30 13z m-1274 -138 c45 -30 85 -55 90
-55 4 0 36 -17 70 -39 51 -31 67 -46 78 -77 7 -21 29 -75 47 -120 19 -45 34
-96 34 -113 0 -32 0 -32 -47 -29 l-48 3 -16 60 c-9 33 -25 103 -34 155 -14 74
-23 100 -42 119 -13 12 -26 21 -29 18 -11 -11 27 -202 55 -271 17 -43 31 -79
31 -82 0 -2 -19 -4 -42 -4 l-43 0 -72 151 c-40 82 -82 185 -94 229 -11 43 -29
86 -40 96 -10 9 -19 21 -19 26 0 11 22 -1 121 -67z m1243 51 c-3 -9 -10 -13
-16 -10 -5 3 -4 12 3 20 15 18 22 13 13 -10z m-14 -49 c-1 -21 -49 -113 -49
-94 -1 30 31 117 40 111 5 -3 9 -11 9 -17z m-1750 -96 c24 -81 24 -115 2 -241
l-17 -95 -49 -3 -49 -3 7 33 c4 18 9 67 13 108 3 41 10 77 14 80 4 3 15 41 24
85 18 89 22 105 29 105 3 0 14 -31 26 -69z m1686 -48 c-21 -41 -45 -70 -46
-56 0 23 34 83 47 83 11 0 11 -5 -1 -27z m-81 -119 c-39 -33 -42 -30 -8 9 15
18 30 29 32 24 2 -5 -9 -20 -24 -33z m-70 -44 c-3 -5 -11 -10 -16 -10 -6 0 -7
5 -4 10 3 6 11 10 16 10 6 0 7 -4 4 -10z m-1445 -75 c0 -47 -3 -55 -19 -55
-15 0 -20 9 -23 41 -2 27 1 47 10 55 24 25 32 15 32 -41z m1360 45 c0 -5 -7
-10 -15 -10 -8 0 -15 5 -15 10 0 6 7 10 15 10 8 0 15 -4 15 -10z"/>
<path d="M1230 2556 c0 -9 7 -16 16 -16 9 0 14 5 12 12 -6 18 -28 21 -28 4z"/>
<path d="M1232 1827 c5 -35 164 -147 188 -132 21 13 7 37 -47 80 -32 24 -77
51 -101 59 -43 15 -43 15 -40 -7z"/>
<path d="M1260 1707 c0 -16 46 -54 55 -45 3 2 -9 17 -25 33 -23 22 -30 25 -30
12z"/>
<path d="M1752 988 c-19 -19 -14 -28 18 -28 17 0 30 4 30 8 0 9 -21 32 -30 32
-3 0 -11 -5 -18 -12z"/>
<path d="M1577 923 c-13 -13 -7 -39 34 -133 197 -455 245 -558 220 -474 -9 29
-240 607 -245 611 -2 2 -6 0 -9 -4z"/>
<path d="M1641 914 c-1 -19 32 -109 36 -98 2 6 -5 33 -16 60 -11 27 -20 44
-20 38z"/>
<path d="M1836 843 c-7 -18 9 -33 37 -33 22 0 23 36 1 44 -24 9 -31 7 -38 -11z"/>
<path d="M1910 807 c0 -35 14 -41 45 -21 29 19 24 29 -17 39 -25 6 -28 4 -28
-18z"/>
<path d="M1793 690 c-26 -32 -30 -48 -8 -30 11 9 21 9 46 -4 40 -20 53 -20 70
0 11 13 8 19 -17 39 -38 32 -64 30 -91 -5z"/>
<path d="M1958 668 c-25 -20 -32 -57 -12 -65 21 -8 44 21 44 54 0 26 -9 29
-32 11z"/>
<path d="M1880 485 c0 -41 16 -46 32 -9 10 21 9 27 -3 35 -24 15 -29 10 -29
-26z"/>
<path d="M1185 658 c4 -18 14 -46 21 -63 14 -30 14 -30 8 15 -7 61 -14 80 -25
80 -7 0 -8 -13 -4 -32z"/>
</g>
</svg>
